<svg width="18" height="25" viewBox="0 0 18 25" fill="none" xmlns="http://www.w3.org/2000/svg">
<path d="M8.29289 24.2071C8.68342 24.5976 9.31658 24.5976 9.70711 24.2071L16.0711 17.8431C16.4616 17.4526 16.4616 16.8195 16.0711 16.4289C15.6805 16.0384 15.0474 16.0384 14.6569 16.4289L9 22.0858L3.34315 16.4289C2.95262 16.0384 2.31946 16.0384 1.92893 16.4289C1.53841 16.8195 1.53841 17.4526 1.92893 17.8431L8.29289 24.2071ZM10 1C10 0.447715 9.55228 0 9 0C8.44772 0 8 0.447715 8 1H10ZM10 23.5V1H8V23.5H10Z" fill="#EEA7B6"/>
</svg>
