<?xml version="1.0" encoding="UTF-8" standalone="no"?>
<!DOCTYPE svg PUBLIC "-//W3C//DTD SVG 1.1//EN" "http://www.w3.org/Graphics/SVG/1.1/DTD/svg11.dtd">
<svg width="100%" height="100%" viewBox="0 0 127 202" version="1.1" xmlns="http://www.w3.org/2000/svg" xmlns:xlink="http://www.w3.org/1999/xlink" xml:space="preserve" xmlns:serif="http://www.serif.com/" style="fill-rule:evenodd;clip-rule:evenodd;stroke-linejoin:round;stroke-miterlimit:2;">
    <g id="Artboard1" transform="matrix(0.630702,0,0,1.00584,0,0)">
        <rect x="0" y="0" width="200" height="200" style="fill:none;"/>
        <g transform="matrix(1.58553,0,0,0.994198,4.63353,0)">
            <circle cx="25.287" cy="183.648" r="4.874" style="fill:rgb(3,197,213);"/>
        </g>
        <g transform="matrix(1.58553,0,0,0.994198,82.7967,0)">
            <circle cx="25.287" cy="183.648" r="4.874" style="fill:rgb(3,197,213);"/>
        </g>
        <g transform="matrix(2.94142,0,0,0.759574,9.4283,56.2234)">
            <circle cx="25.287" cy="183.648" r="4.874" style="fill:rgb(3,197,213);"/>
        </g>
        <g transform="matrix(1.87981,0,0,1.17872,-28011.3,-1344.24)">
            <path d="M15002.6,1299.13C15002.4,1299.33 15002,1299.43 15001.5,1299.43C15001.3,1299.43 15000.7,1299.28 14999.5,1298.99C14997.9,1298.4 14996.6,1297.52 14995.5,1296.35C14992.8,1293.42 14990.8,1289.98 14989.5,1286.02C14988.3,1282.07 14987.3,1277.5 14986.7,1272.32C14986.2,1267.34 14985.9,1262.31 14985.9,1257.23C14985.9,1254.5 14986,1250.59 14986.2,1245.51C14986.7,1237.6 14988.1,1227.3 14990.3,1214.6L14993.3,1197.9C14995.5,1186.96 14997,1178.76 14997.9,1173.29C14998,1172.41 14998.4,1169.57 14999.2,1164.79C15000,1160 15000.5,1155.41 15000.8,1151.02C15000.9,1150.43 15001,1149.5 15001,1148.23C15001,1147.06 15000.8,1146.13 15000.5,1145.45C14999.6,1145.94 14998.7,1146.87 14997.7,1148.23C14994.2,1152.34 14990.5,1157.95 14986.5,1165.08C14976.7,1182.76 14968.7,1200.88 14962.6,1219.43C14959.7,1227.54 14957.4,1234.77 14955.7,1241.12C14954.9,1243.95 14954.2,1246.56 14953.5,1248.95C14952.8,1251.35 14952.2,1253.62 14951.6,1255.77C14950,1261.04 14949.1,1264.65 14948.8,1266.61C14948.7,1267.1 14948.6,1267.76 14948.4,1268.59C14948.2,1269.42 14948.1,1270.12 14948.1,1270.71C14948.2,1270.91 14948.2,1271.25 14948.2,1271.74C14948.2,1273.3 14947.6,1274.33 14946.3,1274.81C14945.7,1275.01 14945.3,1275.11 14945,1275.11C14944.3,1275.11 14943.8,1274.96 14943.4,1274.67C14942.3,1274.18 14941.8,1273.1 14941.8,1271.44C14941.8,1270.56 14942,1268.03 14942.5,1263.83L14943.4,1257.38C14944.7,1245.85 14945.7,1237.21 14946.3,1231.45L14947.5,1220.02C14947.5,1218.95 14947.6,1217.53 14947.8,1215.77C14948.7,1204.35 14949.1,1194.92 14949.1,1187.5C14949.1,1179.88 14948.6,1173.97 14947.6,1169.77C14947.5,1168.69 14947.3,1167.6 14946.8,1166.47C14946.4,1165.35 14945.9,1164.79 14945.3,1164.79C14944.5,1164.79 14943.6,1165.59 14942.6,1167.21C14941.7,1168.82 14941.1,1169.72 14941,1169.92C14938.3,1174.02 14935.5,1179.39 14932.5,1186.03C14926.1,1200.58 14920.2,1217.58 14915,1237.02C14911.7,1249.22 14909.1,1260.99 14907.2,1272.32C14906.6,1275.45 14906.2,1278.48 14905.9,1281.41C14905.5,1284.53 14905.1,1286.8 14904.9,1288.22C14904.6,1289.63 14904.2,1290.54 14903.7,1290.93C14903.3,1291.22 14902.7,1291.47 14902,1291.66C14900.1,1287.48 14903.3,1269.59 14903.4,1270.27C14905.9,1254.16 14909.7,1237.99 14914.7,1221.78C14919,1207.62 14923.7,1194.92 14928.7,1183.69C14931.8,1177.14 14934.6,1171.97 14937.2,1168.16C14938.5,1166.2 14939.8,1164.69 14941,1163.62C14942.8,1162.05 14944.7,1161.27 14946.9,1161.27C14949,1161.27 14950.7,1162.35 14951.7,1164.5C14952.8,1166.55 14953.6,1169.23 14954.1,1172.55C14954.7,1177.14 14955,1182.81 14955,1189.55L14954.8,1199.8C14954.6,1208.2 14954,1218.41 14952.9,1230.42L14958.6,1213.43C14965.2,1194.97 14972.7,1178.37 14981.2,1163.62C14984.6,1157.37 14988.1,1152.14 14991.7,1147.94C14993.7,1145.79 14995.2,1144.28 14996.4,1143.4C14998.4,1141.74 15000.5,1140.91 15002.7,1140.91C15005.4,1140.91 15006.8,1142.52 15007.1,1145.74L15007.3,1149.26L15007.1,1152.63C15006.7,1159.47 15005.9,1166.62 15004.8,1174.09C15003.6,1181.56 15002.9,1185.98 15002.7,1187.35L15000.7,1199.66C14998.3,1213.53 14996.8,1223.98 14996,1231.01C14994.7,1240.87 14994.1,1249.81 14994.1,1257.82C14994.1,1267.29 14994.9,1276.28 14996.7,1284.78C14997.7,1289.37 14999.4,1293.37 15001.8,1296.79C15001.9,1296.89 15002.2,1297.2 15002.6,1297.74C15003,1298.28 15003,1298.74 15002.6,1299.13Z" style="fill:rgb(7,197,213);fill-rule:nonzero;"/>
        </g>
    </g>
</svg>
