<?xml version="1.0" encoding="UTF-8" standalone="no"?>
<!DOCTYPE svg PUBLIC "-//W3C//DTD SVG 1.1//EN" "http://www.w3.org/Graphics/SVG/1.1/DTD/svg11.dtd">
<svg width="100%" height="100%" viewBox="0 0 113 33" version="1.1" xmlns="http://www.w3.org/2000/svg" xmlns:xlink="http://www.w3.org/1999/xlink" xml:space="preserve" xmlns:serif="http://www.serif.com/" style="fill-rule:evenodd;clip-rule:evenodd;stroke-linejoin:round;stroke-miterlimit:2;">
    <g transform="matrix(1,0,0,1,0,-7.58618)">
        <g id="Artboard1" transform="matrix(0.10463,0,0,0.0305556,0,7.58618)">
            <rect x="0" y="0" width="1080" height="1080" style="fill:none;"/>
            <g transform="matrix(6.9166,0,0,23.6841,740.351,-323.055)">
                <path d="M48.295,27.228C48.637,27.496 48.833,27.846 48.887,28.276C48.933,28.716 48.815,29.106 48.538,29.446L42.713,36.737L42.713,44.525C42.713,44.965 42.557,45.342 42.242,45.655C41.938,45.96 41.565,46.113 41.126,46.113C40.687,46.113 40.314,45.96 40.009,45.655C39.695,45.342 39.539,44.965 39.539,44.525L39.539,36.737L33.714,29.446C33.437,29.106 33.324,28.716 33.378,28.276C33.423,27.846 33.615,27.496 33.957,27.228C34.297,26.949 34.688,26.832 35.126,26.877C35.557,26.931 35.912,27.128 36.189,27.469L41.126,33.657L46.076,27.469C46.345,27.128 46.695,26.931 47.125,26.877C47.564,26.832 47.955,26.949 48.295,27.228M13.918,45.992C13.488,45.992 13.116,45.835 12.802,45.521C12.498,45.216 12.345,44.849 12.345,44.418L12.345,28.438C12.345,28.008 12.498,27.64 12.802,27.335C13.116,27.021 13.488,26.864 13.918,26.864C14.349,26.864 14.721,27.021 15.035,27.335C15.34,27.64 15.492,28.008 15.492,28.438L15.492,35.513L23.187,27.429C23.482,27.115 23.851,26.949 24.29,26.931C24.72,26.923 25.092,27.07 25.406,27.375C25.72,27.671 25.881,28.034 25.89,28.465C25.908,28.904 25.765,29.28 25.46,29.595L19.003,36.388L25.715,43.449C26.011,43.772 26.155,44.149 26.146,44.579C26.137,45.01 25.976,45.378 25.662,45.683C25.357,45.97 24.994,46.113 24.572,46.113C24.124,46.113 23.743,45.951 23.429,45.629L16.824,38.674L15.492,40.087L15.492,44.418C15.492,44.849 15.34,45.216 15.035,45.521C14.721,45.835 14.349,45.992 13.918,45.992M-0.62,45.508L-0.634,45.508L-0.634,45.494L-10.305,33.052L-10.305,44.525C-10.305,44.965 -10.462,45.337 -10.776,45.642C-11.081,45.956 -11.453,46.113 -11.893,46.113C-12.332,46.113 -12.704,45.956 -13.009,45.642C-13.323,45.337 -13.48,44.965 -13.48,44.525L-13.48,28.411C-13.48,28.07 -13.381,27.765 -13.184,27.496C-12.987,27.219 -12.727,27.025 -12.404,26.918C-12.089,26.802 -11.767,26.792 -11.435,26.891C-11.112,26.989 -10.848,27.173 -10.642,27.442L-0.97,39.898L-0.97,28.411C-0.97,27.972 -0.817,27.599 -0.513,27.294C-0.199,26.981 0.178,26.823 0.617,26.823C1.057,26.823 1.429,26.981 1.734,27.294C2.048,27.599 2.205,27.972 2.205,28.411L2.205,44.553C2.205,44.57 2.2,44.598 2.191,44.633L2.191,44.7C2.191,44.719 2.187,44.745 2.178,44.781C2.178,44.816 2.173,44.844 2.164,44.862L2.151,44.929C2.142,44.975 2.132,45.001 2.124,45.01C2.124,45.019 2.115,45.041 2.097,45.077C2.088,45.112 2.079,45.14 2.07,45.158L2.043,45.225L2.003,45.292C1.994,45.311 1.98,45.337 1.962,45.373L1.922,45.413C1.913,45.432 1.895,45.458 1.868,45.494L1.828,45.548C1.819,45.557 1.801,45.575 1.774,45.602C1.747,45.638 1.729,45.655 1.72,45.655C1.72,45.664 1.702,45.683 1.667,45.709C1.64,45.736 1.617,45.754 1.599,45.763C1.626,45.745 1.622,45.75 1.586,45.776L1.572,45.79C1.5,45.844 1.433,45.889 1.371,45.925L1.357,45.925C1.285,45.96 1.214,45.992 1.142,46.019C1.106,46.037 1.097,46.041 1.115,46.032C1.043,46.059 0.967,46.077 0.886,46.086L0.846,46.1C0.765,46.108 0.689,46.113 0.617,46.113C0.563,46.113 0.505,46.108 0.442,46.1C0.46,46.108 0.451,46.108 0.416,46.1C0.362,46.091 0.316,46.081 0.281,46.072C0.29,46.081 0.272,46.077 0.227,46.059C0.182,46.05 0.146,46.041 0.12,46.032C0.111,46.032 0.093,46.023 0.066,46.005C0.021,45.996 -0.015,45.983 -0.042,45.965C-0.06,45.965 -0.078,45.956 -0.096,45.938C-0.131,45.92 -0.163,45.906 -0.19,45.897C-0.217,45.88 -0.235,45.866 -0.244,45.857C-0.271,45.839 -0.302,45.816 -0.338,45.79C-0.365,45.772 -0.383,45.759 -0.392,45.75C-0.437,45.714 -0.477,45.678 -0.513,45.642L-0.526,45.629L-0.526,45.615C-0.562,45.579 -0.593,45.543 -0.62,45.508M-23.681,42.925C-23.241,42.925 -22.869,43.081 -22.564,43.396C-22.25,43.71 -22.093,44.086 -22.093,44.525C-22.093,44.965 -22.25,45.337 -22.564,45.642C-22.869,45.956 -23.241,46.113 -23.681,46.113L-33.419,46.113C-33.858,46.113 -34.231,45.956 -34.536,45.642C-34.85,45.337 -35.006,44.965 -35.006,44.525L-35.006,28.398C-35.006,27.948 -34.85,27.572 -34.536,27.268C-34.231,26.953 -33.858,26.797 -33.419,26.797L-33.406,26.797L-23.681,26.823C-23.241,26.823 -22.865,26.981 -22.551,27.294C-22.246,27.608 -22.093,27.985 -22.093,28.424C-22.093,28.863 -22.25,29.236 -22.564,29.541C-22.869,29.855 -23.241,30.012 -23.681,30.012L-23.694,30.012L-31.819,29.984L-31.819,34.867L-25.954,34.867C-25.515,34.867 -25.138,35.021 -24.824,35.325C-24.51,35.639 -24.353,36.016 -24.353,36.455C-24.353,36.894 -24.51,37.271 -24.824,37.585C-25.138,37.89 -25.515,38.042 -25.954,38.042L-31.819,38.042L-31.819,42.925L-23.681,42.925ZM-53.228,26.823C-52.789,26.823 -52.416,26.981 -52.111,27.294C-51.797,27.599 -51.641,27.972 -51.641,28.411L-51.641,42.939L-44.525,42.939C-44.085,42.939 -43.709,43.095 -43.395,43.409C-43.09,43.714 -42.938,44.086 -42.938,44.525C-42.938,44.965 -43.09,45.337 -43.395,45.642C-43.709,45.956 -44.085,46.113 -44.525,46.113L-53.228,46.113C-53.667,46.113 -54.04,45.956 -54.344,45.642C-54.658,45.337 -54.815,44.965 -54.815,44.525L-54.815,28.411C-54.815,27.972 -54.658,27.599 -54.344,27.294C-54.04,26.981 -53.667,26.823 -53.228,26.823M-68.56,38.849L-71.156,32.607L-73.739,38.849L-68.56,38.849ZM-78.407,45.992C-78.81,45.821 -79.097,45.534 -79.268,45.131C-79.429,44.728 -79.429,44.323 -79.268,43.92L-77.559,39.817L-77.559,39.804L-72.609,27.859C-72.591,27.814 -72.569,27.77 -72.542,27.725L-72.515,27.657C-72.488,27.622 -72.47,27.599 -72.461,27.59C-72.461,27.581 -72.448,27.559 -72.421,27.523C-72.394,27.496 -72.376,27.478 -72.367,27.469C-72.367,27.461 -72.354,27.442 -72.327,27.415C-72.291,27.38 -72.273,27.356 -72.273,27.348C-72.264,27.34 -72.246,27.326 -72.219,27.308C-72.184,27.272 -72.161,27.254 -72.152,27.254C-72.161,27.254 -72.143,27.24 -72.098,27.214C-72.063,27.187 -72.04,27.169 -72.031,27.16L-71.977,27.119C-71.932,27.093 -71.905,27.079 -71.896,27.079C-71.878,27.07 -71.847,27.057 -71.802,27.039C-71.757,27.012 -71.744,27.003 -71.762,27.012C-71.78,27.021 -71.762,27.012 -71.708,26.985C-71.663,26.977 -71.632,26.967 -71.614,26.958C-71.605,26.958 -71.573,26.949 -71.52,26.931L-71.466,26.918C-71.448,26.918 -71.417,26.913 -71.372,26.904L-71.304,26.891L-70.995,26.891L-70.914,26.904L-70.847,26.918C-70.829,26.918 -70.798,26.927 -70.753,26.944C-70.699,26.953 -70.681,26.958 -70.699,26.958C-70.591,26.985 -70.493,27.025 -70.403,27.079C-70.412,27.07 -70.395,27.079 -70.35,27.106C-70.304,27.133 -70.277,27.151 -70.269,27.16L-70.215,27.2C-70.179,27.228 -70.156,27.245 -70.147,27.254C-70.139,27.254 -70.121,27.268 -70.094,27.294C-70.067,27.321 -70.045,27.34 -70.026,27.348C-70.026,27.356 -70.013,27.375 -69.986,27.402C-69.951,27.438 -69.933,27.461 -69.933,27.469L-69.892,27.523C-69.856,27.559 -69.838,27.581 -69.838,27.59C-69.838,27.599 -69.825,27.622 -69.798,27.657C-69.771,27.693 -69.757,27.716 -69.757,27.725C-69.73,27.77 -69.708,27.814 -69.69,27.859L-64.74,39.804L-64.74,39.817L-63.032,43.92C-62.871,44.323 -62.871,44.728 -63.032,45.131C-63.202,45.534 -63.489,45.821 -63.893,45.992C-64.09,46.072 -64.292,46.113 -64.498,46.113C-65.206,46.113 -65.695,45.785 -65.964,45.131L-67.255,42.01L-75.044,42.01L-76.335,45.131C-76.604,45.785 -77.093,46.113 -77.801,46.113C-78.008,46.113 -78.209,46.072 -78.407,45.992M-88.846,26.823C-88.504,26.923 -88.227,27.115 -88.012,27.402C-87.796,27.68 -87.689,27.998 -87.689,28.357L-87.689,44.525C-87.689,44.965 -87.841,45.337 -88.146,45.642C-88.46,45.956 -88.837,46.113 -89.276,46.113C-89.715,46.113 -90.092,45.956 -90.406,45.642C-90.71,45.337 -90.863,44.965 -90.863,44.525L-90.863,34.061L-95.881,42.347L-95.881,42.359L-95.894,42.373L-95.921,42.4C-95.948,42.445 -95.966,42.477 -95.975,42.494L-96.015,42.548C-96.051,42.584 -96.074,42.606 -96.083,42.615C-96.091,42.624 -96.109,42.643 -96.136,42.669C-96.163,42.696 -96.181,42.714 -96.19,42.723C-96.208,42.741 -96.235,42.764 -96.271,42.79L-96.311,42.831C-96.338,42.849 -96.37,42.866 -96.405,42.885C-96.405,42.894 -96.41,42.897 -96.418,42.897L-96.432,42.911L-96.446,42.911C-96.464,42.93 -96.495,42.947 -96.54,42.965C-96.575,42.983 -96.589,42.992 -96.58,42.992C-96.589,42.992 -96.616,43.001 -96.661,43.019C-96.867,43.108 -97.083,43.148 -97.307,43.14L-97.333,43.14C-97.315,43.14 -97.333,43.136 -97.387,43.127C-97.503,43.118 -97.621,43.095 -97.737,43.06C-97.782,43.051 -97.799,43.046 -97.791,43.046C-97.772,43.055 -97.791,43.051 -97.845,43.032C-97.89,43.015 -97.92,43.001 -97.938,42.992C-97.93,42.992 -97.938,42.983 -97.966,42.965C-98.011,42.947 -98.046,42.93 -98.073,42.911L-98.087,42.911L-98.1,42.897L-98.114,42.885C-98.149,42.866 -98.181,42.844 -98.208,42.817C-98.208,42.826 -98.221,42.817 -98.248,42.79C-98.284,42.764 -98.311,42.741 -98.329,42.723C-98.337,42.714 -98.355,42.696 -98.383,42.669C-98.41,42.643 -98.428,42.624 -98.437,42.615C-98.445,42.598 -98.468,42.575 -98.504,42.548C-98.522,42.522 -98.531,42.503 -98.531,42.494C-98.549,42.477 -98.571,42.445 -98.598,42.4L-98.611,42.387C-98.611,42.378 -98.616,42.373 -98.625,42.373L-98.625,42.359C-98.625,42.352 -98.629,42.347 -98.638,42.347L-103.642,34.061L-103.642,44.525C-103.642,44.965 -103.799,45.337 -104.113,45.642C-104.427,45.956 -104.804,46.113 -105.243,46.113C-105.682,46.113 -106.055,45.956 -106.359,45.642C-106.673,45.337 -106.83,44.965 -106.83,44.525L-106.83,28.357C-106.83,27.998 -106.723,27.68 -106.507,27.402C-106.292,27.115 -106.009,26.923 -105.66,26.823C-105.319,26.734 -104.982,26.752 -104.651,26.877C-104.319,27.012 -104.059,27.231 -103.871,27.536L-97.252,38.473L-90.635,27.536C-90.455,27.231 -90.2,27.012 -89.868,26.877C-89.536,26.752 -89.195,26.734 -88.846,26.823" style="fill:rgb(88,89,91);fill-rule:nonzero;"/>
            </g>
        </g>
    </g>
</svg>
